<?xml version="1.0" standalone="no"?>
<!DOCTYPE svg PUBLIC "-//W3C//DTD SVG 20010904//EN"
 "http://www.w3.org/TR/2001/REC-SVG-20010904/DTD/svg10.dtd">
<svg version="1.0" xmlns="http://www.w3.org/2000/svg"
 width="380.000000pt" height="240.000000pt" viewBox="0 0 380.000000 240.000000"
 preserveAspectRatio="xMidYMid meet">

<g transform="translate(0.000000,240.000000) scale(0.100000,-0.100000)"
fill="#000000" stroke="none">
<path d="M0 1200 l0 -1200 1302 0 1301 0 -37 36 c-41 40 -39 53 14 97 16 14
30 33 30 41 0 9 6 17 13 17 6 1 32 3 55 4 24 2 57 9 74 16 32 13 83 83 72 100
-3 6 -39 26 -79 45 -88 42 -220 69 -405 85 -92 7 -148 17 -176 30 -23 10 -46
19 -51 19 -14 0 -50 42 -58 69 -6 18 -4 22 6 15 11 -6 12 -5 2 8 -7 8 -10 18
-6 21 3 4 0 14 -8 24 -9 11 -10 14 -1 9 6 -4 12 -3 12 3 0 6 -9 15 -21 21 -32
17 -23 72 14 84 21 8 30 7 37 -4 7 -11 13 -11 35 4 15 10 33 15 41 12 9 -3 16
4 20 19 3 14 11 25 16 25 17 0 -1 81 -27 126 -24 41 -159 174 -176 174 -6 0
-8 4 -5 8 2 4 -20 21 -50 36 -58 31 -77 54 -72 88 4 31 21 32 51 2 15 -15 27
-23 27 -19 0 5 11 -2 25 -15 14 -13 25 -20 25 -17 0 4 23 -4 51 -19 28 -14 54
-23 57 -20 3 3 0 6 -6 6 -7 0 -12 3 -12 8 0 4 19 8 42 9 47 3 75 19 135 79 46
45 113 172 96 183 -6 3 -13 13 -16 21 -3 8 -6 -1 -7 -20 l-1 -35 -14 39 c-7
21 -18 43 -25 50 -8 8 -7 2 1 -21 6 -18 9 -40 7 -50 -3 -13 -8 -9 -20 18 -9
20 -22 40 -29 44 -9 6 -10 3 -4 -11 26 -59 9 -144 -29 -144 -16 0 -42 56 -38
85 1 15 -1 14 -9 -5 -11 -26 -3 -97 12 -116 16 -20 -19 -25 -58 -9 -19 8 -52
15 -73 15 -41 0 -54 11 -64 53 -9 38 0 64 25 70 17 5 19 13 17 64 -1 32 -6 64
-12 72 -8 11 -8 13 2 7 18 -11 15 15 -5 44 -17 24 -25 70 -12 70 4 0 5 9 2 20
-6 21 24 100 37 100 15 0 60 50 60 67 0 13 -3 14 -12 5 -22 -22 -31 -13 -14
14 18 27 18 75 1 81 -6 2 -37 -13 -70 -32 -45 -27 -65 -34 -87 -30 -23 6 -37
-1 -77 -34 -35 -30 -58 -41 -81 -41 -31 0 -32 -1 -17 -18 21 -23 22 -62 3 -62
-8 0 -18 -5 -22 -12 -5 -7 -3 -8 7 -3 8 5 5 -1 -5 -13 -11 -12 -30 -22 -43
-22 -14 0 -21 -4 -18 -10 3 -5 -1 -10 -10 -10 -9 0 -26 -6 -38 -14 -26 -17
-134 -46 -172 -46 -14 0 -24 -4 -21 -9 3 -5 -9 -18 -27 -30 -17 -11 -26 -21
-19 -21 9 0 4 -12 -13 -32 -39 -47 -68 -128 -44 -128 5 0 9 -23 9 -51 0 -58
21 -102 57 -118 34 -16 41 -14 15 5 -22 15 -32 41 -11 28 19 -11 79 -22 83
-15 3 4 -5 8 -16 8 -12 1 -31 12 -42 24 l-21 21 22 -11 c12 -6 39 -11 60 -10
l38 1 -30 9 c-32 9 -75 43 -75 59 0 41 49 53 102 26 23 -12 26 -12 21 0 -8 21
-77 54 -112 54 -16 0 -33 5 -37 12 -4 7 -3 8 4 4 7 -4 12 -1 12 8 0 16 48 46
72 46 7 0 25 6 39 14 39 20 77 27 84 16 4 -6 10 -8 14 -6 4 3 22 -8 39 -24 34
-30 34 -47 3 -84 -9 -11 -10 -16 -4 -12 21 12 15 -29 -7 -49 -11 -10 -20 -24
-20 -31 0 -7 -14 -23 -31 -36 -17 -13 -46 -37 -66 -55 -41 -37 -65 -46 -187
-68 -109 -20 -167 -42 -146 -55 11 -7 8 -10 -13 -15 -14 -4 -42 -25 -62 -46
-37 -42 -45 -62 -19 -52 14 5 14 2 -1 -28 -12 -23 -14 -34 -6 -37 17 -6 13
-30 -9 -52 -19 -19 -19 -20 -2 -20 15 0 18 -6 14 -32 -4 -28 -3 -31 18 -25 22
6 23 4 17 -49 -5 -50 -4 -53 13 -44 24 13 41 63 34 103 -3 22 -2 26 4 14 12
-28 28 -3 36 55 4 25 14 52 23 60 15 11 16 10 11 -10 -4 -12 -3 -22 1 -22 15
0 41 37 41 59 0 12 4 20 9 17 4 -3 16 3 26 14 21 24 40 26 31 5 -9 -24 8 -17
39 15 31 32 48 39 39 15 -14 -35 15 -11 36 30 43 83 53 81 49 -14 -4 -76 -7
-85 -32 -107 -20 -17 -40 -24 -68 -24 -75 0 -100 -29 -107 -125 -2 -32 -10
-72 -18 -87 -8 -15 -12 -28 -9 -28 3 0 -4 -18 -15 -40 -25 -49 -25 -77 0 -115
11 -16 20 -36 20 -44 0 -8 9 -25 20 -36 l21 -22 -63 -12 c-35 -7 -163 -46
-285 -86 -209 -69 -268 -81 -257 -50 3 7 -6 21 -20 32 l-24 20 29 0 c16 0 32
3 36 6 9 9 -36 57 -64 68 -14 5 -20 14 -17 23 3 9 -3 17 -15 21 -12 3 -19 11
-15 16 3 5 -4 21 -15 35 -12 15 -21 33 -21 40 0 7 -5 25 -10 40 -8 21 -14 24
-22 16 -9 -9 -16 2 -30 46 -101 312 -94 640 19 937 140 369 455 680 820 810
l68 24 -727 1 -728 0 0 -1200z m1831 -296 c27 -9 52 -20 54 -24 10 -16 -7 -39
-34 -45 -38 -8 -71 -41 -70 -68 1 -17 2 -18 6 -4 5 20 23 23 23 4 0 -7 9 -18
20 -25 11 -7 20 -22 21 -35 0 -12 3 -16 6 -8 3 8 12 -1 23 -25 10 -22 19 -33
19 -25 1 23 30 -20 31 -45 0 -12 7 -27 15 -34 10 -8 13 -21 9 -33 -4 -12 -2
-17 4 -13 8 5 32 -42 32 -64 0 -4 -102 -10 -227 -14 -126 -3 -255 -9 -288 -12
l-60 -5 -28 58 c-30 63 -34 98 -15 138 8 18 14 22 20 13 5 -9 8 -6 8 10 0 12
7 25 15 28 8 4 15 11 15 18 0 6 7 19 14 29 11 15 22 16 75 9 54 -8 66 -6 86
10 13 10 32 18 43 18 11 0 27 12 37 26 10 16 22 23 31 20 16 -6 53 62 54 97 0
21 0 21 61 1z"/>
<path d="M2400 2357 c221 -91 394 -219 557 -410 51 -61 127 -182 172 -278 101
-214 134 -362 134 -594 0 -396 -144 -733 -433 -1012 l-65 -62 518 -1 517 0 0
1200 0 1200 -752 0 -753 0 105 -43z"/>
</g>
</svg>
